<?xml version="1.0" encoding="UTF-8" standalone="no"?>
<!DOCTYPE svg PUBLIC "-//W3C//DTD SVG 1.1//EN" "http://www.w3.org/Graphics/SVG/1.1/DTD/svg11.dtd">
<svg width="100%" height="100%" viewBox="0 0 216 65" version="1.1" xmlns="http://www.w3.org/2000/svg" xmlns:xlink="http://www.w3.org/1999/xlink" xml:space="preserve" xmlns:serif="http://www.serif.com/" style="fill-rule:evenodd;clip-rule:evenodd;stroke-linejoin:round;stroke-miterlimit:2;">
    <g transform="matrix(0.953772,0,0,0.954787,-688.225,-254.712)">
        <path d="M862.257,272.51L864.466,272.51L864.466,271.051L862.257,271.051L862.257,267.544L860.513,267.544L860.513,271.051L858.588,271.051L858.588,272.51L860.513,272.51L860.513,280.152C860.513,281.145 861.02,281.632 862.054,281.632L864.486,281.632L864.486,280.172L862.257,280.172L862.257,272.51Z" style="fill-rule:nonzero;"/>
        <path d="M870.709,270.848C867.648,270.848 865.743,272.895 865.743,276.301C865.743,279.706 867.648,281.834 870.729,281.834C871.946,281.834 872.979,281.53 873.851,280.922C874.723,280.294 875.25,279.483 875.473,278.449L873.729,278.449C873.385,279.645 872.25,280.415 870.77,280.415C868.824,280.415 867.547,279.179 867.547,277.314L867.547,276.706L875.351,276.706C875.392,276.382 875.412,276.017 875.412,275.611C875.412,272.672 873.608,270.848 870.709,270.848ZM867.547,275.125C867.547,273.422 868.844,272.267 870.709,272.267C872.473,272.267 873.669,273.361 873.669,275.003L873.669,275.409L867.547,275.409L867.547,275.125Z" style="fill-rule:nonzero;"/>
        <path d="M879.547,281.632L879.547,276.098C879.547,273.888 880.804,272.409 882.669,272.409C884.331,272.409 885.162,273.382 885.162,275.307L885.162,281.632L886.925,281.632L886.925,275.125C886.925,272.51 885.547,270.848 883.256,270.848C881.655,270.848 880.337,271.659 879.689,273.017L879.547,273.017L879.324,271.051L877.783,271.051L877.783,281.632L879.547,281.632Z" style="fill-rule:nonzero;"/>
        <path d="M896.513,272.51L898.722,272.51L898.722,271.051L896.513,271.051L896.513,267.544L894.77,267.544L894.77,271.051L892.844,271.051L892.844,272.51L894.77,272.51L894.77,280.152C894.77,281.145 895.277,281.632 896.31,281.632L898.743,281.632L898.743,280.172L896.513,280.172L896.513,272.51Z" style="fill:rgb(255,0,77);fill-rule:nonzero;"/>
        <path d="M902.594,271.051C901.52,271.051 900.993,271.578 900.993,272.611L900.993,281.632L902.756,281.632L902.756,272.51L906.263,272.51L906.263,271.051L902.594,271.051Z" style="fill:rgb(255,0,77);fill-rule:nonzero;"/>
        <path d="M906.526,278.591C906.526,280.557 907.803,281.834 909.932,281.834C911.655,281.834 913.074,281.084 913.54,279.888L913.661,279.888L913.682,280.436C913.743,281.226 914.087,281.632 915.06,281.632L916.864,281.632L916.864,280.334L915.303,280.334L915.303,274.557C915.303,274.071 915.283,273.625 914.959,272.875C914.797,272.49 914.574,272.165 914.31,271.882C913.763,271.314 912.668,270.848 911.27,270.848C908.695,270.848 907.074,272.105 906.972,274.213L908.695,274.213C908.756,272.997 909.607,272.247 911.168,272.247C912.77,272.247 913.56,272.997 913.56,274.517L913.56,275.328L910.378,275.328C907.966,275.328 906.526,276.503 906.526,278.591ZM908.33,278.145C908.33,277.233 909.141,276.605 910.54,276.605L913.56,276.605L913.56,277.172C913.56,279.118 912.303,280.415 910.337,280.415C909.121,280.415 908.33,279.848 908.33,278.794L908.33,278.145Z" style="fill:rgb(255,0,77);fill-rule:nonzero;"/>
        <path d="M925.844,278.024C925.58,279.463 924.425,280.375 922.864,280.375C920.938,280.375 919.661,279.118 919.661,277.233L919.661,275.632C919.661,273.686 920.979,272.328 922.864,272.328C924.324,272.328 925.438,273.057 925.783,274.497L927.526,274.497C927.182,272.287 925.398,270.848 922.945,270.848C921.425,270.848 920.188,271.334 919.256,272.307C918.324,273.28 917.857,274.638 917.857,276.361C917.857,278.044 918.303,279.361 919.195,280.355C920.087,281.348 921.324,281.834 922.884,281.834C925.459,281.834 927.242,280.375 927.587,278.024L925.844,278.024Z" style="fill:rgb(255,0,77);fill-rule:nonzero;"/>
        <path d="M938.918,281.632L934.641,275.186L938.715,271.051L936.465,271.051L931.58,276.078L931.58,266.774L929.817,266.774L929.817,281.632L931.58,281.632L931.58,278.267L933.425,276.402L936.911,281.632L938.918,281.632Z" style="fill:rgb(255,0,77);fill-rule:nonzero;"/>
        <path d="M939.323,278.429C939.323,280.476 940.965,281.834 943.641,281.834C946.215,281.834 947.857,280.618 947.857,278.591C947.857,277.01 946.925,276.057 945.08,275.733L942.992,275.348C942.567,275.267 942.384,275.206 941.958,275.024C941.533,274.801 941.29,274.395 941.29,273.828C941.29,272.834 942.08,272.206 943.519,272.206C945.019,272.206 945.79,272.834 945.83,274.071L947.573,274.071C947.553,272.125 946.033,270.848 943.519,270.848C941.087,270.848 939.526,272.044 939.526,274.01C939.526,275.53 940.458,276.463 942.344,276.807L944.614,277.233C945.546,277.415 946.012,277.902 946.012,278.692C946.012,279.807 945.121,280.456 943.641,280.456C942.08,280.456 941.067,279.665 941.067,278.429L939.323,278.429Z" style="fill:rgb(255,0,77);fill-rule:nonzero;"/>
        <path d="M767.109,299.567C767.948,299.567 768.621,299.343 769.129,298.894C769.638,298.445 769.898,297.854 769.898,297.121C769.898,296.187 769.449,295.396 768.503,295.065L768.503,294.994C769.33,294.604 769.744,293.954 769.744,293.068C769.744,292.394 769.508,291.862 769.035,291.449C768.562,291.035 767.948,290.822 767.18,290.822C766.364,290.822 765.714,291.059 765.23,291.531C764.745,292.004 764.497,292.619 764.497,293.375L764.497,293.517L765.513,293.517L765.513,293.398C765.513,292.406 766.151,291.744 767.156,291.744C768.042,291.744 768.669,292.229 768.669,293.02L768.669,293.268C768.669,294.084 768.054,294.616 767.026,294.616L766.435,294.616L766.435,295.49L767.038,295.49C768.125,295.49 768.81,295.963 768.81,296.849L768.81,297.286C768.81,298.102 768.113,298.657 767.085,298.657C766.01,298.657 765.407,298.031 765.407,296.979L765.407,296.837L764.332,296.837L764.332,297.026C764.332,297.795 764.58,298.409 765.088,298.87C765.596,299.331 766.27,299.567 767.109,299.567Z" style="fill-rule:nonzero;"/>
        <path d="M771.67,293.41L771.67,291.85L775.31,291.85C774.518,292.973 773.809,294.226 773.206,295.597C772.604,296.956 772.202,298.244 771.977,299.449L773.1,299.449C773.348,298.185 773.786,296.837 774.412,295.431C775.038,294.025 775.759,292.76 776.574,291.661L776.574,290.929L770.784,290.929L770.784,293.41L771.67,293.41Z" style="fill-rule:nonzero;"/>
        <path d="M780.231,306.199L780.231,300.564C780.231,298.375 781.326,296.895 783.029,296.895C784.549,296.895 785.319,297.888 785.319,299.854L785.319,306.199L787.062,306.199L787.062,300.584C787.062,298.334 788.056,296.895 789.819,296.895C791.36,296.895 792.13,297.868 792.13,299.814L792.13,306.199L793.893,306.199L793.893,299.591C793.893,296.936 792.576,295.415 790.366,295.415C788.765,295.415 787.529,296.186 786.9,297.726L786.738,297.726C786.333,296.348 785.198,295.415 783.637,295.415C782.076,295.415 781.002,296.145 780.373,297.584L780.211,297.584L779.988,295.618L778.468,295.618L778.468,306.199L780.231,306.199Z" style="fill:rgb(255,0,77);fill-rule:nonzero;"/>
        <path d="M798.657,293.652L798.657,291.341L796.914,291.341L796.914,293.652L798.657,293.652ZM798.657,306.199L798.657,295.618L796.914,295.618L796.914,306.199L798.657,306.199Z" style="fill:rgb(255,0,77);fill-rule:nonzero;"/>
        <path d="M803.603,306.199L803.603,300.665C803.603,298.456 804.86,296.976 806.724,296.976C808.387,296.976 809.218,297.949 809.218,299.875L809.218,306.199L810.981,306.199L810.981,299.692C810.981,297.077 809.603,295.415 807.312,295.415C805.711,295.415 804.393,296.226 803.745,297.584L803.603,297.584L803.38,295.618L801.839,295.618L801.839,306.199L803.603,306.199Z" style="fill:rgb(255,0,77);fill-rule:nonzero;"/>
        <path d="M820.913,295.618L820.913,301.152C820.913,303.402 819.697,304.922 817.772,304.922C816.211,304.922 815.42,303.989 815.42,302.125L815.42,295.618L813.677,295.618L813.677,302.368C813.677,304.942 814.995,306.402 817.184,306.402C818.826,306.402 820.204,305.55 820.772,304.233L820.934,304.233L821.177,306.199L822.677,306.199L822.677,295.618L820.913,295.618Z" style="fill:rgb(255,0,77);fill-rule:nonzero;"/>
        <path d="M828.028,297.077L830.238,297.077L830.238,295.618L828.028,295.618L828.028,292.111L826.285,292.111L826.285,295.618L824.359,295.618L824.359,297.077L826.285,297.077L826.285,304.719C826.285,305.712 826.792,306.199 827.826,306.199L830.258,306.199L830.258,304.739L828.028,304.739L828.028,297.077Z" style="fill:rgb(255,0,77);fill-rule:nonzero;"/>
        <path d="M836.481,295.415C833.42,295.415 831.515,297.463 831.515,300.868C831.515,304.273 833.42,306.402 836.501,306.402C837.717,306.402 838.751,306.098 839.623,305.489C840.494,304.861 841.021,304.05 841.244,303.017L839.501,303.017C839.157,304.212 838.021,304.983 836.542,304.983C834.596,304.983 833.319,303.746 833.319,301.881L833.319,301.273L841.123,301.273C841.163,300.949 841.184,300.584 841.184,300.179C841.184,297.24 839.38,295.415 836.481,295.415ZM833.319,299.692C833.319,297.99 834.616,296.834 836.481,296.834C838.244,296.834 839.44,297.929 839.44,299.571L839.44,299.976L833.319,299.976L833.319,299.692Z" style="fill:rgb(255,0,77);fill-rule:nonzero;"/>
        <path d="M842.643,302.996C842.643,305.044 844.285,306.402 846.961,306.402C849.535,306.402 851.177,305.185 851.177,303.158C851.177,301.577 850.244,300.625 848.4,300.3L846.312,299.915C845.886,299.834 845.704,299.773 845.278,299.591C844.852,299.368 844.609,298.963 844.609,298.395C844.609,297.402 845.4,296.773 846.839,296.773C848.339,296.773 849.109,297.402 849.15,298.638L850.893,298.638C850.873,296.692 849.352,295.415 846.839,295.415C844.406,295.415 842.846,296.611 842.846,298.577C842.846,300.098 843.778,301.03 845.663,301.375L847.933,301.8C848.866,301.983 849.332,302.469 849.332,303.26C849.332,304.375 848.44,305.023 846.961,305.023C845.4,305.023 844.386,304.233 844.386,302.996L842.643,302.996Z" style="fill:rgb(255,0,77);fill-rule:nonzero;"/>
        <path d="M859.528,298.515C859.173,298.515 858.748,298.539 858.263,298.575L860.934,295.762C861.135,295.549 861.265,295.396 861.348,295.301C861.43,295.195 861.56,295.029 861.714,294.805C862.033,294.344 862.151,293.871 862.151,293.304C862.151,292.559 861.903,291.957 861.395,291.508C860.887,291.047 860.225,290.822 859.398,290.822C858.547,290.822 857.861,291.07 857.353,291.579C856.845,292.075 856.609,292.749 856.621,293.611L857.637,293.611L857.637,293.41C857.637,292.418 858.31,291.756 859.362,291.756C859.823,291.756 860.213,291.874 860.544,292.122C860.875,292.37 861.04,292.689 861.04,293.103L861.04,293.599C861.04,294.001 860.745,294.509 860.166,295.136L856.786,298.693L856.786,299.449L862.317,299.449L862.317,298.515L859.528,298.515Z" style="fill-rule:nonzero;"/>
        <path d="M863.463,296.849C863.451,297.665 863.711,298.326 864.243,298.823C864.775,299.319 865.472,299.567 866.358,299.567C867.268,299.567 868.001,299.295 868.544,298.752C869.088,298.208 869.36,297.475 869.36,296.566C869.36,295.679 869.112,294.982 868.603,294.462C868.107,293.942 867.434,293.682 866.583,293.682C865.685,293.682 865.046,293.942 864.656,294.474L864.609,294.462L864.739,291.85L868.946,291.85L868.946,290.929L863.806,290.929L863.605,295.597L864.609,295.597C864.846,294.97 865.531,294.533 866.382,294.533C867.504,294.533 868.273,295.23 868.273,296.258L868.273,296.956C868.273,297.936 867.516,298.657 866.394,298.657C865.212,298.657 864.491,297.901 864.526,296.849L863.463,296.849Z" style="fill-rule:nonzero;"/>
        <path d="M870.648,302.996C870.648,305.044 872.29,306.402 874.966,306.402C877.54,306.402 879.182,305.185 879.182,303.158C879.182,301.577 878.25,300.625 876.405,300.3L874.317,299.915C873.892,299.834 873.709,299.773 873.283,299.591C872.858,299.368 872.615,298.963 872.615,298.395C872.615,297.402 873.405,296.773 874.844,296.773C876.344,296.773 877.115,297.402 877.155,298.638L878.898,298.638C878.878,296.692 877.358,295.415 874.844,295.415C872.412,295.415 870.851,296.611 870.851,298.577C870.851,300.098 871.783,301.03 873.669,301.375L875.939,301.8C876.871,301.983 877.337,302.469 877.337,303.26C877.337,304.375 876.446,305.023 874.966,305.023C873.405,305.023 872.392,304.233 872.392,302.996L870.648,302.996Z" style="fill:rgb(255,0,77);fill-rule:nonzero;"/>
        <path d="M885.689,295.415C882.628,295.415 880.723,297.463 880.723,300.868C880.723,304.273 882.628,306.402 885.709,306.402C886.925,306.402 887.959,306.098 888.831,305.489C889.702,304.861 890.229,304.05 890.452,303.017L888.709,303.017C888.364,304.212 887.229,304.983 885.75,304.983C883.804,304.983 882.527,303.746 882.527,301.881L882.527,301.273L890.331,301.273C890.371,300.949 890.391,300.584 890.391,300.179C890.391,297.24 888.587,295.415 885.689,295.415ZM882.527,299.692C882.527,297.99 883.824,296.834 885.689,296.834C887.452,296.834 888.648,297.929 888.648,299.571L888.648,299.976L882.527,299.976L882.527,299.692Z" style="fill:rgb(255,0,77);fill-rule:nonzero;"/>
        <path d="M900.081,302.591C899.817,304.03 898.662,304.942 897.101,304.942C895.175,304.942 893.898,303.685 893.898,301.8L893.898,300.199C893.898,298.253 895.216,296.895 897.101,296.895C898.56,296.895 899.675,297.625 900.02,299.064L901.763,299.064C901.418,296.854 899.635,295.415 897.182,295.415C895.662,295.415 894.425,295.902 893.493,296.875C892.56,297.848 892.094,299.206 892.094,300.929C892.094,302.611 892.54,303.929 893.432,304.922C894.324,305.915 895.56,306.402 897.121,306.402C899.695,306.402 901.479,304.942 901.824,302.591L900.081,302.591Z" style="fill:rgb(255,0,77);fill-rule:nonzero;"/>
        <path d="M903.182,300.908C903.182,302.591 903.628,303.929 904.54,304.922C905.452,305.915 906.689,306.402 908.27,306.402C911.452,306.402 913.337,304.253 913.337,300.908C913.337,299.185 912.871,297.848 911.939,296.875C911.026,295.902 909.79,295.415 908.27,295.415C906.749,295.415 905.513,295.902 904.58,296.895C903.648,297.868 903.182,299.206 903.182,300.908ZM904.986,300.138C904.986,299.185 905.29,298.395 905.898,297.807C906.526,297.199 907.317,296.895 908.27,296.895C910.195,296.895 911.553,298.192 911.553,300.138L911.553,301.78C911.553,303.746 910.155,304.942 908.27,304.942C906.405,304.942 904.986,303.787 904.986,301.78L904.986,300.138Z" style="fill:rgb(255,0,77);fill-rule:nonzero;"/>
        <path d="M917.432,306.199L917.432,300.665C917.432,298.456 918.688,296.976 920.553,296.976C922.215,296.976 923.047,297.949 923.047,299.875L923.047,306.199L924.81,306.199L924.81,299.692C924.81,297.077 923.432,295.415 921.141,295.415C919.54,295.415 918.222,296.226 917.574,297.584L917.432,297.584L917.209,295.618L915.668,295.618L915.668,306.199L917.432,306.199Z" style="fill:rgb(255,0,77);fill-rule:nonzero;"/>
        <path d="M931.378,306.402C933.182,306.402 934.438,305.712 935.168,304.354L935.29,304.354L935.472,306.199L937.053,306.199L937.053,291.341L935.29,291.341L935.29,297.625L935.168,297.625C934.499,296.327 933.161,295.557 931.378,295.557C928.621,295.557 926.979,297.523 926.979,300.99C926.979,304.415 928.621,306.402 931.378,306.402ZM931.864,304.942C929.979,304.942 928.783,303.807 928.783,302.044L928.783,299.915C928.783,298.152 929.979,297.037 931.864,297.037C933.911,297.037 935.29,298.354 935.29,300.321L935.29,301.638C935.29,303.604 933.911,304.942 931.864,304.942Z" style="fill:rgb(255,0,77);fill-rule:nonzero;"/>
        <path d="M939.323,302.996C939.323,305.044 940.965,306.402 943.641,306.402C946.215,306.402 947.857,305.185 947.857,303.158C947.857,301.577 946.925,300.625 945.08,300.3L942.992,299.915C942.567,299.834 942.384,299.773 941.958,299.591C941.533,299.368 941.29,298.963 941.29,298.395C941.29,297.402 942.08,296.773 943.519,296.773C945.019,296.773 945.79,297.402 945.83,298.638L947.573,298.638C947.553,296.692 946.033,295.415 943.519,295.415C941.087,295.415 939.526,296.611 939.526,298.577C939.526,300.098 940.458,301.03 942.344,301.375L944.614,301.8C945.546,301.983 946.012,302.469 946.012,303.26C946.012,304.375 945.121,305.023 943.641,305.023C942.08,305.023 941.067,304.233 941.067,302.996L939.323,302.996Z" style="fill:rgb(255,0,77);fill-rule:nonzero;"/>
        <path d="M721.582,327.726C721.582,329.692 722.859,330.969 724.988,330.969C726.711,330.969 728.13,330.219 728.596,329.023L728.717,329.023L728.738,329.57C728.798,330.361 729.143,330.766 730.116,330.766L731.92,330.766L731.92,329.469L730.359,329.469L730.359,323.692C730.359,323.206 730.339,322.76 730.015,322.01C729.852,321.624 729.629,321.3 729.366,321.016C728.819,320.449 727.724,319.983 726.325,319.983C723.751,319.983 722.13,321.239 722.028,323.347L723.751,323.347C723.812,322.131 724.663,321.381 726.224,321.381C727.825,321.381 728.616,322.131 728.616,323.651L728.616,324.462L725.434,324.462C723.021,324.462 721.582,325.638 721.582,327.726ZM723.386,327.28C723.386,326.368 724.197,325.739 725.596,325.739L728.616,325.739L728.616,326.307C728.616,328.253 727.359,329.55 725.393,329.55C724.177,329.55 723.386,328.982 723.386,327.928L723.386,327.28Z" style="fill-rule:nonzero;"/>
        <path d="M735.548,330.766L737.636,330.766L741.406,320.185L739.481,320.185L737.616,325.82L736.643,328.962L736.521,328.962L735.488,325.82L733.623,320.185L731.697,320.185L735.548,330.766Z" style="fill-rule:nonzero;"/>
        <path d="M741.873,327.726C741.873,329.692 743.15,330.969 745.278,330.969C747.001,330.969 748.42,330.219 748.886,329.023L749.008,329.023L749.028,329.57C749.089,330.361 749.433,330.766 750.406,330.766L752.21,330.766L752.21,329.469L750.65,329.469L750.65,323.692C750.65,323.206 750.629,322.76 750.305,322.01C750.143,321.624 749.92,321.3 749.656,321.016C749.109,320.449 748.014,319.983 746.616,319.983C744.042,319.983 742.42,321.239 742.319,323.347L744.042,323.347C744.102,322.131 744.954,321.381 746.514,321.381C748.116,321.381 748.906,322.131 748.906,323.651L748.906,324.462L745.724,324.462C743.312,324.462 741.873,325.638 741.873,327.726ZM743.677,327.28C743.677,326.368 744.487,325.739 745.886,325.739L748.906,325.739L748.906,326.307C748.906,328.253 747.65,329.55 745.683,329.55C744.467,329.55 743.677,328.982 743.677,327.928L743.677,327.28Z" style="fill-rule:nonzero;"/>
        <path d="M755.818,318.219L755.818,315.908L754.075,315.908L754.075,318.219L755.818,318.219ZM755.818,330.766L755.818,320.185L754.075,320.185L754.075,330.766L755.818,330.766Z" style="fill-rule:nonzero;"/>
        <rect x="759.001" y="315.908" width="1.743" height="14.858" style="fill-rule:nonzero;"/>
        <path d="M763.035,327.726C763.035,329.692 764.312,330.969 766.44,330.969C768.163,330.969 769.582,330.219 770.048,329.023L770.17,329.023L770.19,329.57C770.251,330.361 770.595,330.766 771.568,330.766L773.372,330.766L773.372,329.469L771.812,329.469L771.812,323.692C771.812,323.206 771.791,322.76 771.467,322.01C771.305,321.624 771.082,321.3 770.818,321.016C770.271,320.449 769.176,319.983 767.778,319.983C765.203,319.983 763.582,321.239 763.481,323.347L765.203,323.347C765.264,322.131 766.116,321.381 767.676,321.381C769.278,321.381 770.068,322.131 770.068,323.651L770.068,324.462L766.886,324.462C764.474,324.462 763.035,325.638 763.035,327.726ZM764.839,327.28C764.839,326.368 765.649,325.739 767.048,325.739L770.068,325.739L770.068,326.307C770.068,328.253 768.812,329.55 766.845,329.55C765.629,329.55 764.839,328.982 764.839,327.928L764.839,327.28Z" style="fill-rule:nonzero;"/>
        <path d="M776.838,330.766L777.001,328.922L777.122,328.922C777.751,330.199 779.149,330.969 780.71,330.969C783.649,330.969 785.291,329.003 785.291,325.516C785.291,322.05 783.751,319.983 780.811,319.983C779.129,319.983 777.69,320.854 777.122,322.212L777.001,322.212L777.001,315.908L775.237,315.908L775.237,330.766L776.838,330.766ZM777.001,324.827C777.001,323.834 777.325,323.043 777.953,322.415C778.602,321.787 779.433,321.462 780.426,321.462C782.311,321.462 783.507,322.618 783.507,324.422L783.507,326.611C783.507,328.374 782.311,329.51 780.426,329.51C779.433,329.51 778.602,329.205 777.953,328.577C777.325,327.949 777.001,327.158 777.001,326.205L777.001,324.827Z" style="fill-rule:nonzero;"/>
        <rect x="787.622" y="315.908" width="1.743" height="14.858" style="fill-rule:nonzero;"/>
        <path d="M796.48,319.983C793.419,319.983 791.514,322.03 791.514,325.435C791.514,328.841 793.419,330.969 796.5,330.969C797.717,330.969 798.75,330.665 799.622,330.057C800.494,329.428 801.021,328.618 801.244,327.584L799.5,327.584C799.156,328.78 798.021,329.55 796.541,329.55C794.595,329.55 793.318,328.314 793.318,326.449L793.318,325.841L801.122,325.841C801.163,325.516 801.183,325.151 801.183,324.746C801.183,321.807 799.379,319.983 796.48,319.983ZM793.318,324.26C793.318,322.557 794.615,321.401 796.48,321.401C798.244,321.401 799.44,322.496 799.44,324.138L799.44,324.543L793.318,324.543L793.318,324.26Z" style="fill-rule:nonzero;"/>
        <path d="M807.061,325.476C807.061,327.158 807.507,328.496 808.419,329.489C809.331,330.482 810.568,330.969 812.149,330.969C815.331,330.969 817.216,328.82 817.216,325.476C817.216,323.753 816.75,322.415 815.818,321.442C814.906,320.469 813.669,319.983 812.149,319.983C810.629,319.983 809.392,320.469 808.46,321.462C807.527,322.435 807.061,323.773 807.061,325.476ZM808.865,324.706C808.865,323.753 809.169,322.962 809.777,322.374C810.406,321.766 811.196,321.462 812.149,321.462C814.075,321.462 815.433,322.76 815.433,324.706L815.433,326.347C815.433,328.314 814.034,329.51 812.149,329.51C810.284,329.51 808.865,328.354 808.865,326.347L808.865,324.706Z" style="fill-rule:nonzero;"/>
        <path d="M821.311,330.766L821.311,325.233C821.311,323.023 822.568,321.543 824.433,321.543C826.095,321.543 826.926,322.516 826.926,324.442L826.926,330.766L828.689,330.766L828.689,324.26C828.689,321.645 827.311,319.983 825.02,319.983C823.419,319.983 822.102,320.793 821.453,322.151L821.311,322.151L821.088,320.185L819.548,320.185L819.548,330.766L821.311,330.766Z" style="fill-rule:nonzero;"/>
        <path d="M835.216,327.726C835.216,329.692 836.493,330.969 838.622,330.969C840.345,330.969 841.764,330.219 842.23,329.023L842.351,329.023L842.372,329.57C842.432,330.361 842.777,330.766 843.75,330.766L845.554,330.766L845.554,329.469L843.993,329.469L843.993,323.692C843.993,323.206 843.973,322.76 843.649,322.01C843.486,321.624 843.264,321.3 843,321.016C842.453,320.449 841.358,319.983 839.959,319.983C837.385,319.983 835.764,321.239 835.662,323.347L837.385,323.347C837.446,322.131 838.297,321.381 839.858,321.381C841.459,321.381 842.25,322.131 842.25,323.651L842.25,324.462L839.068,324.462C836.655,324.462 835.216,325.638 835.216,327.726ZM837.02,327.28C837.02,326.368 837.831,325.739 839.23,325.739L842.25,325.739L842.25,326.307C842.25,328.253 840.993,329.55 839.027,329.55C837.811,329.55 837.02,328.982 837.02,327.928L837.02,327.28Z" style="fill-rule:nonzero;"/>
        <rect x="847.419" y="315.908" width="1.743" height="14.858" style="fill-rule:nonzero;"/>
        <rect x="852.344" y="315.908" width="1.743" height="14.858" style="fill-rule:nonzero;"/>
        <path d="M863.412,334.151L863.412,328.76L863.534,328.76C864.202,330.057 865.54,330.827 867.324,330.827C870.081,330.827 871.723,328.861 871.723,325.395C871.723,321.969 870.081,319.983 867.324,319.983C865.601,319.983 864.243,320.733 863.534,322.05L863.412,322.05L863.23,320.185L861.648,320.185L861.648,334.151L863.412,334.151ZM866.838,329.347C864.79,329.347 863.412,328.03 863.412,326.064L863.412,324.746C863.412,322.78 864.79,321.442 866.838,321.442C868.723,321.442 869.919,322.577 869.919,324.341L869.919,326.469C869.919,328.232 868.723,329.347 866.838,329.347Z" style="fill:rgb(255,0,77);fill-rule:nonzero;"/>
        <rect x="874.033" y="315.908" width="1.743" height="14.858" style="fill:rgb(255,0,77);fill-rule:nonzero;"/>
        <path d="M878.067,327.726C878.067,329.692 879.344,330.969 881.473,330.969C883.196,330.969 884.614,330.219 885.081,329.023L885.202,329.023L885.223,329.57C885.283,330.361 885.628,330.766 886.601,330.766L888.405,330.766L888.405,329.469L886.844,329.469L886.844,323.692C886.844,323.206 886.824,322.76 886.5,322.01C886.337,321.624 886.114,321.3 885.851,321.016C885.304,320.449 884.209,319.983 882.81,319.983C880.236,319.983 878.615,321.239 878.513,323.347L880.236,323.347C880.297,322.131 881.148,321.381 882.709,321.381C884.31,321.381 885.101,322.131 885.101,323.651L885.101,324.462L881.919,324.462C879.506,324.462 878.067,325.638 878.067,327.726ZM879.871,327.28C879.871,326.368 880.682,325.739 882.081,325.739L885.101,325.739L885.101,326.307C885.101,328.253 883.844,329.55 881.878,329.55C880.662,329.55 879.871,328.982 879.871,327.928L879.871,327.28Z" style="fill:rgb(255,0,77);fill-rule:nonzero;"/>
        <path d="M892.317,321.645L894.527,321.645L894.527,320.185L892.317,320.185L892.317,316.679L890.574,316.679L890.574,320.185L888.648,320.185L888.648,321.645L890.574,321.645L890.574,329.287C890.574,330.28 891.081,330.766 892.114,330.766L894.547,330.766L894.547,329.307L892.317,329.307L892.317,321.645Z" style="fill:rgb(255,0,77);fill-rule:nonzero;"/>
        <path d="M901.864,317.347L901.864,315.908L899.067,315.908C897.952,315.908 897.385,316.395 897.385,317.368L897.385,320.185L895.317,320.185L895.317,321.645L897.385,321.645L897.385,330.766L899.128,330.766L899.128,321.645L901.418,321.645L901.418,320.185L899.128,320.185L899.128,317.347L901.864,317.347Z" style="fill:rgb(255,0,77);fill-rule:nonzero;"/>
        <path d="M902.351,325.476C902.351,327.158 902.797,328.496 903.709,329.489C904.621,330.482 905.857,330.969 907.439,330.969C910.621,330.969 912.506,328.82 912.506,325.476C912.506,323.753 912.04,322.415 911.107,321.442C910.195,320.469 908.959,319.983 907.439,319.983C905.918,319.983 904.682,320.469 903.749,321.462C902.817,322.435 902.351,323.773 902.351,325.476ZM904.155,324.706C904.155,323.753 904.459,322.962 905.067,322.374C905.695,321.766 906.486,321.462 907.439,321.462C909.364,321.462 910.722,322.76 910.722,324.706L910.722,326.347C910.722,328.314 909.324,329.51 907.439,329.51C905.574,329.51 904.155,328.354 904.155,326.347L904.155,324.706Z" style="fill:rgb(255,0,77);fill-rule:nonzero;"/>
        <path d="M916.438,320.185C915.364,320.185 914.837,320.712 914.837,321.746L914.837,330.766L916.601,330.766L916.601,321.645L920.107,321.645L920.107,320.185L916.438,320.185Z" style="fill:rgb(255,0,77);fill-rule:nonzero;"/>
        <path d="M923.553,330.766L923.553,325.131C923.553,322.942 924.648,321.462 926.351,321.462C927.871,321.462 928.641,322.456 928.641,324.422L928.641,330.766L930.384,330.766L930.384,325.151C930.384,322.901 931.378,321.462 933.141,321.462C934.682,321.462 935.452,322.435 935.452,324.381L935.452,330.766L937.215,330.766L937.215,324.158C937.215,321.503 935.898,319.983 933.688,319.983C932.087,319.983 930.85,320.753 930.222,322.293L930.06,322.293C929.655,320.915 928.519,319.983 926.959,319.983C925.398,319.983 924.324,320.712 923.695,322.151L923.533,322.151L923.31,320.185L921.79,320.185L921.79,330.766L923.553,330.766Z" style="fill:rgb(255,0,77);fill-rule:nonzero;"/>
        <path d="M939.323,327.564C939.323,329.611 940.965,330.969 943.641,330.969C946.215,330.969 947.857,329.753 947.857,327.726C947.857,326.145 946.925,325.192 945.08,324.868L942.992,324.483C942.567,324.401 942.384,324.341 941.958,324.158C941.533,323.935 941.29,323.53 941.29,322.962C941.29,321.969 942.08,321.341 943.519,321.341C945.019,321.341 945.79,321.969 945.83,323.206L947.573,323.206C947.553,321.26 946.033,319.983 943.519,319.983C941.087,319.983 939.526,321.179 939.526,323.145C939.526,324.665 940.458,325.597 942.344,325.942L944.614,326.368C945.546,326.55 946.012,327.037 946.012,327.827C946.012,328.942 945.121,329.591 943.641,329.591C942.08,329.591 941.067,328.8 941.067,327.564L939.323,327.564Z" style="fill:rgb(255,0,77);fill-rule:nonzero;"/>
    </g>
</svg>
