<?xml version="1.0" encoding="UTF-8" standalone="no"?>
<!DOCTYPE svg PUBLIC "-//W3C//DTD SVG 1.1//EN" "http://www.w3.org/Graphics/SVG/1.1/DTD/svg11.dtd">
<svg width="100%" height="100%" viewBox="0 0 909 96" version="1.1" xmlns="http://www.w3.org/2000/svg" xmlns:xlink="http://www.w3.org/1999/xlink" xml:space="preserve" xmlns:serif="http://www.serif.com/" style="fill-rule:evenodd;clip-rule:evenodd;stroke-linejoin:round;stroke-miterlimit:2;">
    <g transform="matrix(4.70975,0,-6.43828e-32,3.67525,-14634.5,-12120.8)">
        <g id="Ttile">
            <path d="M3160.7,3318.27L3150.05,3318.27C3149.84,3317.9 3149.7,3317.61 3149.64,3317.41C3149.57,3317.21 3149.51,3316.9 3149.44,3316.47C3148.7,3317.18 3147.97,3317.69 3147.24,3318C3146.24,3318.4 3145.08,3318.61 3143.76,3318.61C3142.01,3318.61 3140.68,3318.2 3139.77,3317.39C3138.86,3316.58 3138.4,3315.57 3138.4,3314.38C3138.4,3313.26 3138.73,3312.35 3139.39,3311.62C3140.04,3310.91 3141.25,3310.37 3143.01,3310.02C3145.13,3309.59 3146.5,3309.3 3147.13,3309.12C3147.76,3308.95 3148.42,3308.73 3149.12,3308.45C3149.12,3307.76 3148.98,3307.28 3148.7,3307C3148.41,3306.72 3147.91,3306.58 3147.18,3306.58C3146.26,3306.58 3145.57,3306.73 3145.11,3307.03C3144.75,3307.26 3144.46,3307.69 3144.23,3308.33L3138.85,3307.76C3139.05,3306.82 3139.34,3306.08 3139.72,3305.54C3140.11,3305 3140.66,3304.53 3141.38,3304.13C3141.9,3303.84 3142.61,3303.62 3143.51,3303.47C3144.42,3303.31 3145.4,3303.23 3146.45,3303.23C3148.14,3303.23 3149.5,3303.33 3150.52,3303.51C3151.55,3303.7 3152.4,3304.1 3153.09,3304.7C3153.57,3305.11 3153.95,3305.7 3154.22,3306.47C3154.5,3307.23 3154.64,3307.95 3154.64,3308.65L3154.64,3315.14C3154.64,3315.84 3154.68,3316.38 3154.77,3316.77C3154.82,3317.01 3154.92,3317.3 3155.05,3317.63L3155.05,3303.56L3160.32,3303.56L3160.32,3305.71C3161.07,3304.81 3161.84,3304.18 3162.61,3303.8C3163.38,3303.42 3164.31,3303.23 3165.4,3303.23C3166.57,3303.23 3167.5,3303.44 3168.18,3303.85C3168.87,3304.27 3169.43,3304.89 3169.86,3305.71C3170.75,3304.75 3171.56,3304.1 3172.29,3303.75C3173.01,3303.4 3173.92,3303.23 3174.99,3303.23C3176.57,3303.23 3177.8,3303.7 3178.69,3304.64C3179.57,3305.57 3180.02,3307.04 3180.02,3309.03L3180.02,3318.27L3174.36,3318.27L3174.36,3309.89C3174.36,3309.23 3174.23,3308.73 3173.98,3308.41C3173.6,3307.9 3173.13,3307.65 3172.56,3307.65C3171.9,3307.65 3171.36,3307.89 3170.96,3308.37C3170.55,3308.85 3170.35,3309.62 3170.35,3310.68L3170.35,3318.27L3164.69,3318.27L3164.69,3310.17C3164.69,3309.52 3164.66,3309.09 3164.58,3308.85C3164.46,3308.49 3164.26,3308.19 3163.96,3307.96C3163.66,3307.74 3163.32,3307.62 3162.92,3307.62C3162.27,3307.62 3161.74,3307.87 3161.33,3308.36C3160.91,3308.85 3160.7,3309.65 3160.7,3310.77L3160.7,3318.27ZM3149.12,3311.29C3148.35,3311.57 3147.54,3311.81 3146.7,3312.03C3145.56,3312.33 3144.83,3312.63 3144.53,3312.93C3144.21,3313.23 3144.05,3313.58 3144.05,3313.97C3144.05,3314.41 3144.21,3314.77 3144.52,3315.05C3144.83,3315.34 3145.28,3315.48 3145.88,3315.48C3146.51,3315.48 3147.1,3315.32 3147.64,3315.02C3148.18,3314.71 3148.56,3314.34 3148.78,3313.9C3149.01,3313.47 3149.12,3312.89 3149.12,3312.19L3149.12,3311.29ZM3196.49,3312.81C3196.26,3314.42 3195.71,3315.71 3194.84,3316.67C3193.66,3317.96 3192.18,3318.61 3190.39,3318.61C3189.52,3318.61 3188.73,3318.46 3188.01,3318.16C3187.3,3317.87 3186.66,3317.43 3186.1,3316.85L3186.1,3323.87L3180.4,3323.87L3180.4,3303.56L3185.68,3303.56L3185.68,3305.74C3186.41,3304.82 3187.08,3304.2 3187.69,3303.88C3188.51,3303.45 3189.42,3303.23 3190.42,3303.23C3192.39,3303.23 3193.91,3303.98 3194.98,3305.49C3195.78,3306.6 3196.28,3307.9 3196.49,3309.39L3196.49,3297.97L3202.14,3297.97L3202.14,3309.46C3202.39,3307.83 3203.09,3306.47 3204.23,3305.36C3205.71,3303.94 3207.74,3303.23 3210.34,3303.23C3212.44,3303.23 3214.11,3303.55 3215.32,3304.19C3216.31,3304.7 3217.11,3305.41 3217.72,3306.31L3217.72,3303.56L3219.8,3303.56L3219.8,3300.86L3225.45,3297.97L3225.45,3303.56L3233.57,3303.56L3233.57,3305.97C3234.07,3304.93 3234.6,3304.21 3235.14,3303.82C3235.68,3303.43 3236.35,3303.23 3237.14,3303.23C3237.97,3303.23 3238.88,3303.49 3239.87,3304.01L3239.47,3304.93C3239.78,3304.64 3240.15,3304.37 3240.59,3304.13C3241.11,3303.84 3241.82,3303.62 3242.72,3303.47C3243.63,3303.31 3244.61,3303.23 3245.66,3303.23C3247.35,3303.23 3248.71,3303.33 3249.73,3303.51C3250.76,3303.7 3251.61,3304.1 3252.29,3304.7C3252.77,3305.11 3253.15,3305.7 3253.43,3306.47C3253.68,3307.15 3253.82,3307.82 3253.84,3308.45C3253.96,3308 3254.12,3307.58 3254.32,3307.21C3254.69,3306.47 3255.21,3305.8 3255.87,3305.22C3256.52,3304.63 3257.2,3304.2 3257.89,3303.91C3258.99,3303.46 3260.4,3303.23 3262.12,3303.23C3264.52,3303.23 3266.35,3303.66 3267.61,3304.52C3268.46,3305.1 3269.14,3305.86 3269.65,3306.81L3269.65,3297.97L3275.41,3297.97L3275.41,3308.44L3279.62,3303.56L3286.56,3303.56L3281.29,3308.72L3284.63,3314.43C3284.61,3314.36 3284.59,3314.28 3284.57,3314.2L3290.16,3313.68C3290.4,3314.34 3290.72,3314.82 3291.14,3315.1C3291.55,3315.39 3292.1,3315.53 3292.8,3315.53C3293.55,3315.53 3294.14,3315.37 3294.56,3315.05C3294.88,3314.81 3295.04,3314.51 3295.04,3314.15C3295.04,3313.74 3294.83,3313.43 3294.4,3313.2C3294.1,3313.05 3293.29,3312.85 3291.98,3312.62C3290.02,3312.28 3288.66,3311.96 3287.9,3311.67C3287.14,3311.38 3286.5,3310.89 3285.97,3310.2C3285.45,3309.51 3285.19,3308.72 3285.19,3307.83C3285.19,3306.86 3285.47,3306.02 3286.04,3305.32C3286.6,3304.62 3287.38,3304.1 3288.36,3303.75C3289.35,3303.4 3290.68,3303.23 3292.34,3303.23C3294.1,3303.23 3295.39,3303.36 3296.23,3303.63C3297.06,3303.9 3297.76,3304.32 3298.32,3304.88C3298.88,3305.44 3299.34,3306.2 3299.71,3307.16L3294.36,3307.69C3294.22,3307.22 3293.99,3306.87 3293.67,3306.65C3293.23,3306.36 3292.69,3306.21 3292.06,3306.21C3291.43,3306.21 3290.96,3306.32 3290.67,3306.55C3290.38,3306.77 3290.23,3307.05 3290.23,3307.37C3290.23,3307.73 3290.42,3308.01 3290.79,3308.19C3291.16,3308.37 3291.96,3308.54 3293.2,3308.69C3295.07,3308.9 3296.47,3309.2 3297.38,3309.58C3298.3,3309.95 3299,3310.49 3299.48,3311.2C3299.97,3311.9 3300.21,3312.67 3300.21,3313.51C3300.21,3314.36 3299.95,3315.18 3299.44,3315.99C3298.93,3316.79 3298.12,3317.43 3297.01,3317.91C3295.91,3318.38 3294.41,3318.62 3292.51,3318.62C3289.82,3318.62 3287.91,3318.24 3286.76,3317.47C3286.52,3317.31 3286.29,3317.13 3286.09,3316.93L3286.87,3318.27L3280.51,3318.27L3277.53,3312.37L3275.41,3314.45L3275.41,3318.27L3269.65,3318.27L3269.65,3315.26C3269.48,3315.54 3269.3,3315.79 3269.1,3316.04C3268.42,3316.86 3267.56,3317.49 3266.51,3317.94C3265.47,3318.39 3264.13,3318.62 3262.52,3318.62C3260.96,3318.62 3259.66,3318.47 3258.62,3318.18C3257.58,3317.89 3256.68,3317.42 3255.94,3316.77C3255.19,3316.12 3254.6,3315.36 3254.18,3314.48C3254.05,3314.21 3253.94,3313.91 3253.85,3313.59L3253.85,3315.14C3253.85,3315.84 3253.89,3316.38 3253.98,3316.77C3254.07,3317.16 3254.26,3317.66 3254.55,3318.27L3249.26,3318.27C3249.05,3317.9 3248.91,3317.61 3248.85,3317.41C3248.78,3317.21 3248.72,3316.9 3248.65,3316.47C3247.91,3317.18 3247.18,3317.69 3246.45,3318C3245.45,3318.4 3244.29,3318.61 3242.97,3318.61C3241.22,3318.61 3239.88,3318.2 3238.97,3317.39C3238.07,3316.58 3237.61,3315.57 3237.61,3314.38C3237.61,3313.26 3237.94,3312.35 3238.59,3311.62C3239.25,3310.91 3240.46,3310.37 3242.22,3310.02C3244.34,3309.59 3245.71,3309.3 3246.34,3309.12C3246.97,3308.95 3247.63,3308.73 3248.33,3308.45C3248.33,3307.76 3248.19,3307.28 3247.9,3307C3247.62,3306.72 3247.11,3306.58 3246.39,3306.58C3245.47,3306.58 3244.78,3306.73 3244.32,3307.03C3243.95,3307.26 3243.66,3307.69 3243.44,3308.33L3238.23,3307.78L3238.12,3308.02C3237.46,3307.75 3236.93,3307.61 3236.54,3307.61C3235.81,3307.61 3235.23,3307.91 3234.83,3308.52C3234.24,3309.38 3233.95,3310.99 3233.95,3313.34L3233.95,3318.27L3228.29,3318.27L3228.29,3318.25C3227.07,3318.49 3225.93,3318.61 3224.85,3318.61C3223.45,3318.61 3222.41,3318.43 3221.75,3318.07C3221.09,3317.71 3220.59,3317.16 3220.28,3316.43C3219.96,3315.69 3219.8,3314.5 3219.8,3312.86L3219.8,3307.68L3218.43,3307.68C3218.85,3308.77 3219.06,3310.11 3219.06,3311.68L3219.06,3312.32L3207.76,3312.32C3207.86,3313.22 3208.11,3313.9 3208.49,3314.34C3209.04,3314.98 3209.75,3315.3 3210.63,3315.3C3211.18,3315.3 3211.71,3315.16 3212.21,3314.88C3212.51,3314.7 3212.84,3314.4 3213.19,3313.95L3218.74,3314.47C3217.9,3315.94 3216.87,3317 3215.67,3317.64C3214.47,3318.29 3212.75,3318.61 3210.5,3318.61C3208.55,3318.61 3207.02,3318.33 3205.9,3317.78C3204.79,3317.23 3203.86,3316.36 3203.13,3315.16C3202.63,3314.35 3202.3,3313.44 3202.14,3312.43L3202.14,3318.27L3196.49,3318.27L3196.49,3312.81ZM3186.05,3310.96C3186.05,3312.12 3186.3,3312.99 3186.79,3313.55C3187.28,3314.11 3187.9,3314.4 3188.64,3314.4C3189.3,3314.4 3189.85,3314.12 3190.29,3313.59C3190.74,3313.05 3190.96,3312.13 3190.96,3310.84C3190.96,3309.64 3190.73,3308.77 3190.27,3308.21C3189.8,3307.65 3189.24,3307.37 3188.58,3307.37C3187.86,3307.37 3187.26,3307.65 3186.78,3308.22C3186.3,3308.78 3186.05,3309.7 3186.05,3310.96ZM3228.29,3307.68L3225.45,3307.68L3225.45,3312.9C3225.45,3313.53 3225.51,3313.94 3225.63,3314.15C3225.81,3314.46 3226.14,3314.62 3226.6,3314.62C3227,3314.62 3227.57,3314.5 3228.29,3314.28L3228.29,3307.68ZM3269.65,3308.37L3264.95,3308.99C3264.79,3308.37 3264.49,3307.89 3264.05,3307.57C3263.61,3307.25 3263.02,3307.1 3262.28,3307.1C3261.35,3307.1 3260.59,3307.43 3260.02,3308.1C3259.44,3308.77 3259.15,3309.78 3259.15,3311.14C3259.15,3312.35 3259.44,3313.27 3260.01,3313.9C3260.58,3314.53 3261.31,3314.84 3262.2,3314.84C3262.94,3314.84 3263.56,3314.65 3264.06,3314.27C3264.56,3313.89 3264.94,3313.31 3265.19,3312.53L3269.65,3313.03L3269.65,3308.37ZM3213.33,3309.62C3213.22,3308.53 3212.93,3307.75 3212.45,3307.28C3211.97,3306.8 3211.35,3306.57 3210.57,3306.57C3209.68,3306.57 3208.96,3306.92 3208.43,3307.64C3208.08,3308.08 3207.87,3308.74 3207.77,3309.62L3213.33,3309.62ZM3248.33,3311.29C3247.56,3311.57 3246.75,3311.81 3245.91,3312.03C3244.76,3312.33 3244.04,3312.63 3243.73,3312.93C3243.42,3313.23 3243.26,3313.58 3243.26,3313.97C3243.26,3314.41 3243.42,3314.77 3243.73,3315.05C3244.03,3315.34 3244.49,3315.48 3245.09,3315.48C3245.72,3315.48 3246.3,3315.32 3246.84,3315.02C3247.38,3314.71 3247.77,3314.34 3247.99,3313.9C3248.22,3313.47 3248.33,3312.89 3248.33,3312.19L3248.33,3311.29ZM3124.33,3312.32L3113.03,3312.32C3113.13,3313.22 3113.37,3313.9 3113.76,3314.34C3114.31,3314.98 3115.02,3315.3 3115.89,3315.3C3116.45,3315.3 3116.97,3315.16 3117.47,3314.88C3117.78,3314.7 3118.11,3314.4 3118.46,3313.95L3124.01,3314.47C3123.16,3315.94 3122.14,3317 3120.94,3317.64C3119.74,3318.29 3118.01,3318.61 3115.77,3318.61C3113.82,3318.61 3112.29,3318.33 3111.17,3317.78C3110.05,3317.23 3109.13,3316.36 3108.39,3315.16C3107.66,3313.97 3107.29,3312.56 3107.29,3310.95C3107.29,3308.65 3108.03,3306.79 3109.5,3305.36C3110.97,3303.94 3113.01,3303.23 3115.6,3303.23C3117.71,3303.23 3119.37,3303.55 3120.59,3304.19C3121.81,3304.82 3122.74,3305.75 3123.37,3306.96C3124.01,3308.17 3124.33,3309.74 3124.33,3311.68L3124.33,3312.32ZM3118.59,3309.62C3118.48,3308.53 3118.19,3307.75 3117.72,3307.28C3117.24,3306.8 3116.61,3306.57 3115.84,3306.57C3114.94,3306.57 3114.23,3306.92 3113.69,3307.64C3113.35,3308.08 3113.13,3308.74 3113.04,3309.62L3118.59,3309.62ZM3121.9,3303.56L3128.6,3303.56L3130.94,3307.66L3133.65,3303.56L3139.87,3303.56L3134.86,3310.57L3140.23,3318.27L3133.65,3318.27L3130.94,3313.54L3127.74,3318.27L3121.63,3318.27L3126.97,3310.57L3121.9,3303.56Z" style="fill:rgb(255,0,77);"/>
        </g>
    </g>
</svg>
