<?xml version="1.0" encoding="UTF-8" standalone="no"?>
<!DOCTYPE svg PUBLIC "-//W3C//DTD SVG 1.1//EN" "http://www.w3.org/Graphics/SVG/1.1/DTD/svg11.dtd">
<svg width="100%" height="100%" viewBox="0 0 1000 1000" version="1.1" xmlns="http://www.w3.org/2000/svg" xmlns:xlink="http://www.w3.org/1999/xlink" xml:space="preserve" xmlns:serif="http://www.serif.com/" style="fill-rule:evenodd;clip-rule:evenodd;stroke-linecap:round;stroke-linejoin:round;stroke-miterlimit:1.5;">
    <g transform="matrix(1,0,0,1,-6682.59,-2780.96)">
        <g id="colour" transform="matrix(1.3362,0,0,1.44928,6297.05,4152.81)">
            <rect x="288.537" y="-946.579" width="748.389" height="689.999" style="fill:none;"/>
            <g transform="matrix(0.133891,0.573182,-0.674295,0.133891,508.33,-1345.7)">
                <path d="M1293.62,346.199C1098.43,352.784 934.2,213.119 927.112,34.507C920.023,-144.105 1072.74,-294.462 1267.93,-301.046C1463.12,-307.631 1627.35,-167.966 1634.44,10.646C1635.48,36.919 1633.07,62.581 1627.57,87.264L1657.74,92.892C1644.4,151.78 1615.13,206.697 1572.67,252.516L1548.86,233.758C1524.33,259.813 1495.33,282.293 1462.9,300.169L1479.83,325.987C1423.79,356.795 1360.13,374.109 1294.81,376.312L1293.62,346.199ZM1208.21,-245.845L1212.89,-228.53C1084.12,-198.937 995.42,-90.237 1000.27,32.039C1005.94,174.774 1136.23,286.416 1291.04,281.194C1445.85,275.971 1566.94,155.849 1561.28,13.114C1558.56,-55.475 1526.39,-120.259 1471.86,-166.984L1485.67,-180.679C1429.11,-228.422 1352.73,-256.537 1269.81,-253.739C1248.62,-253.025 1228.02,-250.325 1208.21,-245.845ZM1458.63,-151.734L1469.38,-162.277C1506.71,-129.459 1533.43,-87.629 1546.52,-41.524C1585.18,94.722 1497.49,234.06 1350.83,269.438C1204.16,304.817 1053.69,222.924 1015.03,86.678C983.849,-23.214 1034.62,-138.737 1139.57,-196.713L1148.55,-182.774C1082.46,-146.267 1039.31,-85.393 1027.02,-18.141L1041.93,-15.748C1027.88,55.7 1052.2,128.735 1107.19,180.209C1115.17,187.676 1123.71,194.612 1132.76,200.964L1124.06,211.443C1185.09,255.065 1266.34,273.053 1346.37,253.747C1445.47,229.844 1515.81,155.262 1533.71,67.655L1518.8,64.998C1528.21,21.78 1523.59,-22.938 1505.54,-63.561L1518.33,-68.464C1516.15,-73.34 1513.79,-78.143 1511.27,-82.867L1497.94,-76.771C1463.44,-142.045 1396.97,-187.671 1319.61,-199.187C1308.39,-200.858 1297.05,-201.791 1285.68,-201.98L1286.02,-217.223C1298.15,-217.021 1310.26,-216.024 1322.25,-214.24C1374.16,-206.512 1421.48,-184.399 1458.63,-151.734Z" style="fill:white;fill-opacity:0;stroke:black;stroke-width:0.5px;"/>
            </g>
        </g>
    </g>
</svg>
