<?xml version="1.0" encoding="UTF-8" standalone="no"?>
<!DOCTYPE svg PUBLIC "-//W3C//DTD SVG 1.1//EN" "http://www.w3.org/Graphics/SVG/1.1/DTD/svg11.dtd">
<svg width="100%" height="100%" viewBox="0 0 461 30" version="1.1" xmlns="http://www.w3.org/2000/svg" xmlns:xlink="http://www.w3.org/1999/xlink" xml:space="preserve" xmlns:serif="http://www.serif.com/" style="fill-rule:evenodd;clip-rule:evenodd;stroke-linejoin:round;stroke-miterlimit:2;">
    <g transform="matrix(1.48006,0,0,1.48006,-641.383,-7389.97)">
        <path d="M647.023,5004.61C646.436,5005.87 644.978,5006.88 642.65,5007.63C639.536,5008.63 635.6,5009.14 630.844,5009.14C628.539,5009.14 626.436,5009.02 624.536,5008.79C622.636,5008.56 620.938,5008.22 619.442,5007.76L619.442,5013.24L604.326,5013.24L604.326,4997.4L618.339,4997.4L618.339,4999.09C620.276,4998.38 622.053,4997.9 623.672,4997.64C625.854,4997.31 628.269,4997.14 630.917,4997.14C636.14,4997.14 640.179,4997.72 643.036,4998.9C645.14,4999.76 646.469,5000.78 647.023,5001.94L647.023,4993.03L662.029,4993.03L662.029,5008.88L647.023,5008.88L647.023,5004.61ZM619.332,5003.17C619.332,5004.08 619.981,5004.75 621.281,5005.19C622.58,5005.63 624.223,5005.85 626.209,5005.85C627.95,5005.85 629.409,5005.64 630.586,5005.22C631.763,5004.8 632.352,5004.08 632.352,5003.07C632.352,5002.14 631.739,5001.46 630.513,5001.02C629.287,5000.59 627.791,5000.37 626.025,5000.37C624.113,5000.37 622.519,5000.59 621.244,5001.03C619.969,5001.47 619.332,5002.18 619.332,5003.17ZM704.764,5006.9L704.764,5008.88L690.788,5008.88L690.788,5007.02C688.704,5007.78 686.601,5008.32 684.48,5008.65C682.359,5008.97 679.754,5009.14 676.664,5009.14C672.545,5009.14 669.315,5008.77 666.973,5008.05C664.631,5007.32 663.461,5006.21 663.461,5004.7L663.461,4997.4L678.503,4997.4L678.503,5003.71C678.503,5004.43 678.957,5004.94 679.864,5005.24C680.772,5005.55 682.047,5005.7 683.689,5005.7C685.479,5005.7 686.944,5005.5 688.085,5005.09C689.225,5004.69 689.795,5003.97 689.795,5002.92L689.795,4997.4L704.764,4997.4L704.764,5005.65L718.075,5005.29C718.688,5005.81 719.546,5006.18 720.65,5006.4C721.753,5006.62 723.224,5006.74 725.063,5006.74C727.074,5006.74 728.631,5006.61 729.734,5006.36C730.592,5006.17 731.021,5005.94 731.021,5005.65C731.021,5005.34 730.458,5005.09 729.33,5004.92C728.52,5004.8 726.375,5004.65 722.893,5004.47C717.695,5004.2 714.084,5003.95 712.062,5003.73C710.039,5003.5 708.335,5003.11 706.949,5002.57C705.564,5002.03 704.871,5001.42 704.871,5000.73C704.871,4999.97 705.619,4999.32 707.115,4998.77C708.61,4998.22 710.67,4997.81 713.294,4997.54C715.917,4997.27 719.436,4997.14 723.849,4997.14C728.508,4997.14 731.947,4997.24 734.166,4997.45C736.385,4997.66 738.236,4997.98 739.72,4998.42C741.203,4998.86 742.435,4999.46 743.416,5000.21L729.219,5000.62C728.851,5000.25 728.238,4999.98 727.38,4999.81C726.203,4999.58 724.781,4999.46 723.114,4999.46C721.422,4999.46 720.19,4999.55 719.418,4999.73C718.645,4999.9 718.259,5000.12 718.259,5000.37C718.259,5000.65 718.749,5000.86 719.73,5001.01C720.711,5001.15 722.844,5001.28 726.13,5001.4C731.107,5001.56 734.81,5001.79 737.237,5002.09C739.665,5002.38 741.522,5002.8 742.809,5003.35C744.097,5003.9 744.74,5004.5 744.74,5005.16C744.74,5005.82 744.06,5006.47 742.699,5007.09C741.338,5007.72 739.193,5008.22 736.263,5008.59C733.332,5008.96 729.342,5009.15 724.291,5009.15C717.156,5009.15 712.074,5008.85 709.046,5008.25C707.227,5007.89 705.8,5007.44 704.764,5006.9ZM477.445,5006.05C475.248,5007.13 472.626,5007.9 469.578,5008.38C466.391,5008.89 461.818,5009.14 455.859,5009.14C450.686,5009.14 446.615,5008.92 443.649,5008.49C440.682,5008.06 438.224,5007.38 436.274,5006.45C434.325,5005.52 433.35,5004.42 433.35,5003.16C433.35,5001.36 435.306,4999.91 439.217,4998.8C443.127,4997.69 448.528,4997.14 455.418,4997.14C461.008,4997.14 465.422,4997.39 468.659,4997.88C471.895,4998.38 474.359,4999.1 476.051,5000.04C476.311,5000.19 476.55,5000.34 476.77,5000.5C477.545,4999.77 478.708,4999.15 480.259,4998.65C483.361,4997.64 487.303,4997.14 492.084,4997.14C494.413,4997.14 496.528,4997.25 498.428,4997.48C500.329,4997.71 502.014,4998.06 503.486,4998.52L503.486,4993.03L518.602,4993.03L518.602,5001.38C519.497,5000.38 521.207,4999.52 523.73,4998.8C527.64,4997.69 533.041,4997.14 539.931,4997.14C545.521,4997.14 549.935,4997.39 553.172,4997.88C556.408,4998.38 558.872,4999.1 560.564,5000.04C561.139,5000.36 561.616,5000.72 561.995,5001.11L561.995,4997.4L575.935,4997.4L575.935,4999.27C578.019,4998.5 580.128,4997.96 582.261,4997.63C584.394,4997.3 586.993,4997.14 590.058,4997.14C594.202,4997.14 597.445,4997.5 599.786,4998.22C602.128,4998.95 603.299,5000.07 603.299,5001.58L603.299,5008.88L588.256,5008.88L588.256,5002.56C588.256,5001.84 587.802,5001.33 586.895,5001.03C585.988,5000.73 584.713,5000.59 583.07,5000.59C581.256,5000.59 579.785,5000.79 578.657,5001.19C577.529,5001.59 576.965,5002.32 576.965,5003.36L576.965,5008.88L561.995,5008.88L561.995,5006.03C559.792,5007.12 557.157,5007.9 554.091,5008.38C550.904,5008.89 546.331,5009.14 540.372,5009.14C535.199,5009.14 531.128,5008.92 528.162,5008.49C525.195,5008.06 522.737,5007.38 520.787,5006.45C519.818,5005.98 519.089,5005.48 518.602,5004.94L518.602,5008.88L504.589,5008.88L504.589,5007.18C502.627,5007.9 500.838,5008.39 499.219,5008.64C497.061,5008.97 494.659,5009.14 492.01,5009.14C486.69,5009.14 482.625,5008.54 479.818,5007.35C478.865,5006.95 478.074,5006.52 477.445,5006.05ZM463.362,5002.12C463.068,5001.27 462.29,5000.66 461.027,5000.29C459.764,4999.93 458.103,4999.74 456.043,4999.74C453.665,4999.74 451.765,5000.02 450.342,5000.57C449.435,5000.92 448.859,5001.44 448.614,5002.12L463.362,5002.12ZM561.995,5004.23L533.09,5004.23C533.36,5004.93 534.009,5005.46 535.039,5005.81C536.486,5006.3 538.374,5006.55 540.703,5006.55C542.175,5006.55 543.572,5006.44 544.896,5006.23C545.705,5006.09 546.576,5005.85 547.508,5005.5L561.995,5005.9L561.995,5004.23ZM547.875,5002.12C547.581,5001.27 546.803,5000.66 545.54,5000.29C544.277,4999.93 542.616,4999.74 540.556,4999.74C538.178,4999.74 536.278,5000.02 534.855,5000.57C533.948,5000.92 533.372,5001.44 533.127,5002.12L547.875,5002.12ZM503.596,5003.1C503.596,5002.2 502.946,5001.53 501.647,5001.09C500.347,5000.64 498.704,5000.42 496.718,5000.42C494.977,5000.42 493.518,5000.64 492.341,5001.06C491.164,5001.48 490.576,5002.2 490.576,5003.2C490.576,5004.14 491.183,5004.82 492.397,5005.26C493.61,5005.7 495.112,5005.91 496.902,5005.91C498.815,5005.91 500.408,5005.69 501.683,5005.26C502.958,5004.82 503.596,5004.1 503.596,5003.1ZM477.231,5005.89C476.578,5005.37 476.122,5004.82 475.862,5004.23L448.577,5004.23C448.847,5004.93 449.496,5005.46 450.526,5005.81C451.973,5006.3 453.861,5006.55 456.19,5006.55C457.662,5006.55 459.059,5006.44 460.383,5006.23C461.192,5006.09 462.063,5005.85 462.995,5005.5L477.231,5005.89Z" style="fill:white;"/>
    </g>
</svg>
